<svg id="Layer_1" data-name="Layer 1" xmlns="http://www.w3.org/2000/svg" xmlns:xlink="http://www.w3.org/1999/xlink" viewBox="0 0 1743.29 799.13"><defs><style>.cls-1{fill:#fff;}.cls-2{fill:#f05e3e;}</style></defs><g id="Header_3" data-name="Header #3"><g id="_YOUR_IMAGE_HERE_" data-name="[YOUR IMAGE HERE]"><g id="Browser_Frame" data-name="Browser Frame"><line id="Rectangle" class="cls-1" x1="1740.43" y1="180.13" x2="1740.43" y2="799.13"/><path id="Rectangle-2" data-name="Rectangle" class="cls-2" d="M1995,527.86c2.21,0,4,.45,4,1h0c0,.55-1.79,1-4,1" transform="translate(-255.75 -348.73)"/></g></g></g><path class="cls-1" d="M511.16,480.53a48.66,48.66,0,0,1-35.45-14.92,51,51,0,0,1-10.59-16.46,53.93,53.93,0,0,1-3.81-20.4,53.1,53.1,0,0,1,3.81-20.21,51.2,51.2,0,0,1,10.59-16.4,49.69,49.69,0,0,1,15.82-11,47.89,47.89,0,0,1,19.63-4,50.63,50.63,0,0,1,17.11,2.58,49.23,49.23,0,0,1,14.39,8.52,7.3,7.3,0,0,1,1.62,1.62,4.89,4.89,0,0,1,.77,1.67,9,9,0,0,1,.2,2,5.27,5.27,0,0,1-1.75,4.06,6.71,6.71,0,0,1-9,.2,38.45,38.45,0,0,0-9.88-6.33q-5.1-2.19-13.49-2.2a33.92,33.92,0,0,0-14.34,3.1A37.92,37.92,0,0,0,485,400.86a39.19,39.19,0,0,0-7.94,12.59,41,41,0,0,0-2.84,15.3,41.37,41.37,0,0,0,2.84,15.43A39.3,39.3,0,0,0,485,456.77a37.24,37.24,0,0,0,11.81,8.46,35.46,35.46,0,0,0,26.8.77,48,48,0,0,0,11.3-6.26,6.77,6.77,0,0,1,4.58-1.49,5.77,5.77,0,0,1,3.81,1.81,6.19,6.19,0,0,1,1.55,4.46,6.27,6.27,0,0,1-.52,2.51,7,7,0,0,1-1.55,2.26,52,52,0,0,1-14.91,8.4A49.39,49.39,0,0,1,511.16,480.53Z" transform="translate(-255.75 -348.73)"/><path class="cls-1" d="M591.86,479.75a36.53,36.53,0,0,1-18.46-4.58,33.21,33.21,0,0,1-12.59-12.66,39.94,39.94,0,0,1,0-37.18,33.21,33.21,0,0,1,12.59-12.66,39.25,39.25,0,0,1,36.8,0,33.35,33.35,0,0,1,12.59,12.66,40.25,40.25,0,0,1,.06,37.18,32.82,32.82,0,0,1-12.52,12.66A36.59,36.59,0,0,1,591.86,479.75Zm0-11.62a22.59,22.59,0,0,0,11.88-3.1,21.71,21.71,0,0,0,8.07-8.52A26.1,26.1,0,0,0,614.72,444a26.49,26.49,0,0,0-2.91-12.59,21.6,21.6,0,0,0-8.07-8.58,24.31,24.31,0,0,0-23.76,0,22,22,0,0,0-8.13,8.58,25.94,25.94,0,0,0-3,12.59,25.56,25.56,0,0,0,3,12.53A22.14,22.14,0,0,0,580,465,22.59,22.59,0,0,0,591.86,468.13Z" transform="translate(-255.75 -348.73)"/><path class="cls-1" d="M653.58,479.36a6.39,6.39,0,0,1-6.58-6.58V415.32a6.34,6.34,0,0,1,1.87-4.78,6.56,6.56,0,0,1,11.3,4.78v57.46a6.52,6.52,0,0,1-1.81,4.71A6.34,6.34,0,0,1,653.58,479.36Zm43.13,0a6.41,6.41,0,0,1-6.59-6.58V435.85q0-8.13-4-12.07a14.27,14.27,0,0,0-10.46-3.94,14.59,14.59,0,0,0-11.1,4.65,16.6,16.6,0,0,0-4.39,11.88H652a31.32,31.32,0,0,1,3.36-14.79,25.17,25.17,0,0,1,9.3-10A25.5,25.5,0,0,1,678.24,408a26,26,0,0,1,13,3.23,22,22,0,0,1,8.84,9.49,33.31,33.31,0,0,1,3.16,15.17v36.93a6.51,6.51,0,0,1-1.8,4.71A6.34,6.34,0,0,1,696.71,479.36Zm43,0a6.41,6.41,0,0,1-6.59-6.58V435.85q0-8.13-4-12.07a15.63,15.63,0,0,0-21.5.71,16.73,16.73,0,0,0-4.33,11.88H692.58a29.52,29.52,0,0,1,3.61-14.79,25.76,25.76,0,0,1,10.14-10A30.22,30.22,0,0,1,721.24,408a25.92,25.92,0,0,1,13,3.23,22,22,0,0,1,8.85,9.49,33.31,33.31,0,0,1,3.16,15.17v36.93a6.51,6.51,0,0,1-1.8,4.71A6.34,6.34,0,0,1,739.71,479.36Z" transform="translate(-255.75 -348.73)"/><path class="cls-1" d="M774.7,509.45a6.41,6.41,0,0,1-6.59-6.58V444a37.3,37.3,0,0,1,4.78-18.33,34.54,34.54,0,0,1,12.66-12.85,35.64,35.64,0,0,1,49,12.85A35.92,35.92,0,0,1,839.26,444a38.11,38.11,0,0,1-4.32,18.28A33.55,33.55,0,0,1,823.12,475a32.68,32.68,0,0,1-30.92,1.55A33.16,33.16,0,0,1,781.29,468v34.87a6.54,6.54,0,0,1-1.81,4.71A6.34,6.34,0,0,1,774.7,509.45Zm28.92-41.32A22,22,0,0,0,815.37,465a22.9,22.9,0,0,0,8.2-8.65,25,25,0,0,0,3-12.34,25.27,25.27,0,0,0-3-12.46,23,23,0,0,0-8.2-8.65,23.3,23.3,0,0,0-23.43,0,22.37,22.37,0,0,0-8.2,8.65,25.78,25.78,0,0,0-3,12.46,25.5,25.5,0,0,0,3,12.34,22.2,22.2,0,0,0,19.88,11.81Z" transform="translate(-255.75 -348.73)"/><path class="cls-1" d="M888.33,479.75A31.1,31.1,0,0,1,871.41,475a33.45,33.45,0,0,1-11.81-12.78A38,38,0,0,1,855.27,444,35.83,35.83,0,0,1,860,425.65a34.86,34.86,0,0,1,12.78-12.85,35.6,35.6,0,0,1,48.94,12.85A35.92,35.92,0,0,1,926.42,444h-5a38.11,38.11,0,0,1-4.32,18.28A33.48,33.48,0,0,1,905.24,475,31.09,31.09,0,0,1,888.33,479.75Zm2.58-11.62A22,22,0,0,0,902.66,465a22.52,22.52,0,0,0,8.14-8.65,25.5,25.5,0,0,0,3-12.34,25.78,25.78,0,0,0-3-12.46,22.59,22.59,0,0,0-8.14-8.65,23.3,23.3,0,0,0-23.43,0,22.84,22.84,0,0,0-8.27,8.65,25.37,25.37,0,0,0-3,12.46,25.1,25.1,0,0,0,3,12.34,22.77,22.77,0,0,0,8.27,8.65A22.1,22.1,0,0,0,890.91,468.13Zm28.92,11.23a6.39,6.39,0,0,1-6.58-6.58V453l2.45-13.68L926.42,444v28.8a6.39,6.39,0,0,1-6.59,6.58Z" transform="translate(-255.75 -348.73)"/><path class="cls-1" d="M952.63,479.36a6.41,6.41,0,0,1-6.59-6.58V415.19a6.35,6.35,0,0,1,1.88-4.78,6.56,6.56,0,0,1,11.3,4.78v57.59a6.52,6.52,0,0,1-1.81,4.71A6.34,6.34,0,0,1,952.63,479.36Zm53.07,0a6.39,6.39,0,0,1-6.58-6.58V441c0-4.9-.91-8.91-2.72-12a17,17,0,0,0-7.29-6.91,23.5,23.5,0,0,0-10.53-2.26,21.69,21.69,0,0,0-9.81,2.19,18.31,18.31,0,0,0-7,5.88,14.36,14.36,0,0,0-2.58,8.46h-8.14A27.08,27.08,0,0,1,955,421.84,28.45,28.45,0,0,1,965.8,411.7,31.56,31.56,0,0,1,981.17,408a32.92,32.92,0,0,1,15.94,3.81,27.48,27.48,0,0,1,11.11,11.17q4.06,7.35,4.07,18.07v31.77a6.41,6.41,0,0,1-6.59,6.58Z" transform="translate(-255.75 -348.73)"/><path class="cls-1" d="M1062,476.39a5.88,5.88,0,0,1-4.58.2,6.66,6.66,0,0,1-3.43-3.29l-29.57-56.17a5.29,5.29,0,0,1-.32-4.72,6.18,6.18,0,0,1,3.42-3.29,6,6,0,0,1,4.65-.19,6.13,6.13,0,0,1,3.36,3.29l28.28,56.17a7.63,7.63,0,0,1,1,4.71A4.1,4.1,0,0,1,1062,476.39Zm-15.24,33.84a8.11,8.11,0,0,1-3.1-.78q-5.69-2.58-3.1-8.13l39.39-89q2.58-5.43,8.13-3.1,5.82,2.46,3.23,8.13l-39.51,88.84C1050.76,508.89,1049.09,510.23,1046.76,510.23Z" transform="translate(-255.75 -348.73)"/><image width="3000" height="3000" transform="translate(0) scale(0.06)" xlink:href="../../Downloads/Whitenobackground%20(1).png"/></svg>