<svg id="Layer_1" data-name="Layer 1" xmlns="http://www.w3.org/2000/svg" xmlns:xlink="http://www.w3.org/1999/xlink" viewBox="0 0 1964.08 1515"><defs><style>.cls-1{fill:none;}.cls-2{clip-path:url(#clip-path);}.cls-3{fill:#f05e3e;}.cls-4,.cls-6{fill:#fff;}.cls-5{fill:#3fa2f7;}.cls-6{isolation:isolate;font-size:16px;font-family:Roboto-Medium, Roboto Medium;font-weight:500;}.cls-7{letter-spacing:-0.01em;}</style><clipPath id="clip-path" transform="translate(280.22 307)"><rect id="Background" class="cls-1" x="-160" y="125" width="1440" height="899"/></clipPath></defs><line id="Background-2" data-name="Background" class="cls-1" y1="1245.86" y2="346.86"/><g id="Header_3" data-name="Header #3"><g id="_YOUR_IMAGE_HERE_" data-name="[YOUR IMAGE HERE]"><g class="cls-2"><g id="Browser_Frame" data-name="Browser Frame"><g id="Rectangle"><path id="path-3" class="cls-3" d="M743,384h936a4,4,0,0,1,4,4v643a4,4,0,0,1-4,4H743a4,4,0,0,1-4-4V388A4,4,0,0,1,743,384Z" transform="translate(280.22 307)"/></g><rect id="Rectangle-2" data-name="Rectangle" class="cls-4" x="1021.22" y="721" width="940" height="619"/><path id="Rectangle-3" data-name="Rectangle" class="cls-3" d="M742.82,413h937c2.21,0,4,.45,4,1h0c0,.55-1.79,1-4,1h-937c-2.22,0-4-.45-4-1h0C738.81,413.45,740.6,413,742.82,413Z" transform="translate(280.22 307)"/><ellipse id="Oval" class="cls-4" cx="1038.55" cy="707.21" rx="4" ry="4"/><ellipse id="Oval-2" data-name="Oval" class="cls-4" cx="1052.55" cy="707.21" rx="4" ry="4"/><ellipse id="Oval-3" data-name="Oval" class="cls-4" cx="1066.55" cy="707.21" rx="4" ry="4"/><path id="Icon" class="cls-3" d="M1257,719.82l-26.08-27.36a1.51,1.51,0,0,0-2.14,0L1206,716.4a1.51,1.51,0,0,0,0,2.12,1.49,1.49,0,0,0,2.1,0l21.75-22.82,26.58,27.88a1.52,1.52,0,0,0,.57.37V735h-40.93l-33.21-34.54a1.5,1.5,0,0,0-2.13,0L1163,718.9V672h94ZM1163,735V723.19l.08-.05,18.73-19.45L1212,735Zm95.5-66h-97a1.48,1.48,0,0,0-1.49,1.49v66a1.5,1.5,0,0,0,1.5,1.5h97a1.49,1.49,0,0,0,1.49-1.49v-66A1.5,1.5,0,0,0,1258.5,669Zm-55.59,31.54a9,9,0,1,0-8.91-9A9,9,0,0,0,1202.91,700.54Zm0-15a6,6,0,1,1-5.94,6A6,6,0,0,1,1202.91,685.56Z" transform="translate(280.22 307)"/></g><g id="Mobile_phone" data-name="Mobile phone"><path id="Stroke" class="cls-3" d="M883,1172.05a35.89,35.89,0,0,1-36,36H596c-20.45,0-37-16-37-36V575c0-19.8,16.55-36,37-36H847a36,36,0,0,1,36,36v597.1Z" transform="translate(280.22 307)"/><polygon id="Fill" class="cls-3" points="1151.22 921 1150.21 921 855.23 921 854.22 921 854.22 922 854.22 1436 854.22 1437 855.23 1437 1150.21 1437 1151.22 1437 1151.22 1436 1151.22 922 1151.22 921"/><path id="Stroke-2" data-name="Stroke" class="cls-4" d="M746.36,581a2,2,0,0,1-2,2H699.31a2,2,0,0,1,0-4h45.05a2,2,0,0,1,2,2Z" transform="translate(280.22 307)"/><path id="Stroke-3" data-name="Stroke" class="cls-4" d="M726.34,561a5,5,0,1,1-5-5,5,5,0,0,1,5,5Z" transform="translate(280.22 307)"/><path id="Stroke-4" data-name="Stroke" class="cls-4" d="M674.34,581a5,5,0,1,1-5-5,5,5,0,0,1,5,5Z" transform="translate(280.22 307)"/><path id="Stroke-5" data-name="Stroke" class="cls-3" d="M886,684h-3v47h3a.89.89,0,0,0,1-1V685a.89.89,0,0,0-1-1Z" transform="translate(280.22 307)"/><path id="Stroke-6" data-name="Stroke" class="cls-3" d="M559,623h-1a1.14,1.14,0,0,0-1,1v20a1.14,1.14,0,0,0,1,1h1V623Z" transform="translate(280.22 307)"/><path id="Stroke-7" data-name="Stroke" class="cls-3" d="M555.67,746c-.36,0-.67.44-.67,1v45c0,.56.31,1,.67,1H559V746Z" transform="translate(280.22 307)"/><path id="Stroke-8" data-name="Stroke" class="cls-3" d="M555.67,684c-.36,0-.67.44-.67,1v45c0,.56.31,1,.67,1H559V684Z" transform="translate(280.22 307)"/><rect id="Rectangle-4" data-name="Rectangle" class="cls-4" x="856.22" y="923" width="293" height="512"/><path id="Icon-2" data-name="Icon" class="cls-3" d="M755,883.35l-18.4-18.46a1.2,1.2,0,0,0-1.69,0l-16,16.1a1.2,1.2,0,0,0,0,1.69,1.21,1.21,0,0,0,1.7,0l15.2-15.26,18.59,18.66a1.12,1.12,0,0,0,.65.32V894H726.78l-23.25-23.14a1.19,1.19,0,0,0-1.69,0L690,882.64V851h65ZM690,894v-8l12.72-12.66L723.49,894Zm26.34-22.32a6.49,6.49,0,1,0-6.5-6.49A6.5,6.5,0,0,0,716.34,871.68Zm0-10.59a4.1,4.1,0,1,1-4.1,4.1A4.11,4.11,0,0,1,716.34,861.09ZM755.8,849H688.2a1.2,1.2,0,0,0-1.2,1.2v45.6a1.2,1.2,0,0,0,1.2,1.2h67.6a1.2,1.2,0,0,0,1.2-1.2V850.2a1.2,1.2,0,0,0-1.2-1.2Z" transform="translate(280.22 307)"/></g></g></g><g id="Button"><path id="Button-2" data-name="Button" class="cls-5" d="M860-307H961a4,4,0,0,1,4,4v34a4,4,0,0,1-4,4H860a4,4,0,0,1-4-4v-34A4,4,0,0,1,860-307Z" transform="translate(280.22 307)"/><text class="cls-6" transform="translate(1166.55 26.9)">But<tspan class="cls-7" x="22.78" y="0">t</tspan><tspan x="27.98" y="0">on</tspan></text></g></g></svg>