<svg id="Layer_1" data-name="Layer 1" xmlns="http://www.w3.org/2000/svg" viewBox="0 0 1009.4 725.49"><defs><style>.cls-1{isolation:isolate;}.cls-2{fill:#fff;}.cls-3{fill:#f05e3e;}.cls-4{fill:none;}</style></defs><g id="Header_1" data-name="Header #1"><g class="cls-1"><path class="cls-2" d="M266.24,120.5a.64.64,0,0,1-.45-.17.61.61,0,0,1-.18-.45V108.63a.61.61,0,0,1,.18-.45.64.64,0,0,1,.45-.17h2.88a6.88,6.88,0,0,1,2.52.45,5.8,5.8,0,0,1,3.26,3.28,6.52,6.52,0,0,1,.46,2.51,6.68,6.68,0,0,1-.46,2.52,5.8,5.8,0,0,1-3.26,3.28,6.88,6.88,0,0,1-2.52.45Zm.62-1.12h2.26a5.05,5.05,0,0,0,2.6-.66,4.72,4.72,0,0,0,1.77-1.83,5.87,5.87,0,0,0,0-5.29,4.76,4.76,0,0,0-1.77-1.82,5.15,5.15,0,0,0-2.6-.65h-2.26Z" transform="translate(-95.1 -107.85)"/><path class="cls-2" d="M281.76,120.58a4.55,4.55,0,0,1-2.29-.57,4.23,4.23,0,0,1-1.58-1.59,4.83,4.83,0,0,1,0-4.59,4.13,4.13,0,0,1,1.58-1.58,4.79,4.79,0,0,1,4.57,0,4.18,4.18,0,0,1,1.57,1.58,4.71,4.71,0,0,1,.6,2.3,4.46,4.46,0,0,1-.59,2.29A4.38,4.38,0,0,1,284,120,4.54,4.54,0,0,1,281.76,120.58Zm0-1.12a3.19,3.19,0,0,0,1.66-.43,3,3,0,0,0,1.15-1.18,3.71,3.71,0,0,0,0-3.43,3,3,0,0,0-1.15-1.2,3.19,3.19,0,0,0-1.66-.43,3.22,3.22,0,0,0-1.67.43,3.18,3.18,0,0,0-1.16,1.2,3.71,3.71,0,0,0,0,3.43,3.16,3.16,0,0,0,2.83,1.61Z" transform="translate(-95.1 -107.85)"/><path class="cls-2" d="M292.51,120.58a4.34,4.34,0,0,1-2.25-.58,4.23,4.23,0,0,1-1.55-1.59,4.54,4.54,0,0,1-.57-2.28,4.74,4.74,0,0,1,.54-2.28,4,4,0,0,1,3.67-2.18,4.3,4.3,0,0,1,1.8.38,4.21,4.21,0,0,1,1.45,1.16.43.43,0,0,1,.12.41.63.63,0,0,1-.27.37.45.45,0,0,1-.39.09.73.73,0,0,1-.38-.23,2.94,2.94,0,0,0-2.33-1.06,2.88,2.88,0,0,0-1.58.43,3,3,0,0,0-1,1.19,3.79,3.79,0,0,0-.38,1.72,3.55,3.55,0,0,0,.4,1.72,3,3,0,0,0,1.12,1.18,3.12,3.12,0,0,0,1.65.43,3.45,3.45,0,0,0,1.14-.17,2.51,2.51,0,0,0,.92-.51.69.69,0,0,1,.4-.18.53.53,0,0,1,.39.13.61.61,0,0,1,.21.4.41.41,0,0,1-.15.38A4.12,4.12,0,0,1,292.51,120.58Z" transform="translate(-95.1 -107.85)"/><path class="cls-2" d="M302,120.6a4.31,4.31,0,0,1-2-.47,3.52,3.52,0,0,1-1.42-1.39,4.39,4.39,0,0,1-.52-2.22v-4.16a.61.61,0,0,1,.61-.61.61.61,0,0,1,.45.18.6.6,0,0,1,.17.43v4.16a3.2,3.2,0,0,0,.38,1.63,2.36,2.36,0,0,0,1,1,3.31,3.31,0,0,0,1.47.32,3.24,3.24,0,0,0,1.41-.3,2.51,2.51,0,0,0,1-.84,2,2,0,0,0,.37-1.2h.88a3.57,3.57,0,0,1-1.9,3A3.89,3.89,0,0,1,302,120.6Zm3.52-.1a.57.57,0,0,1-.44-.17.61.61,0,0,1-.17-.45v-7.52a.58.58,0,0,1,.61-.61.64.64,0,0,1,.45.17.6.6,0,0,1,.17.44v7.52a.61.61,0,0,1-.17.45A.6.6,0,0,1,305.47,120.5Z" transform="translate(-95.1 -107.85)"/><path class="cls-2" d="M309.6,120.5a.58.58,0,0,1-.63-.61v-7.51a.61.61,0,0,1,.17-.45.65.65,0,0,1,.9,0,.61.61,0,0,1,.16.45v7.51a.57.57,0,0,1-.6.61Zm5.61,0a.57.57,0,0,1-.44-.17.56.56,0,0,1-.18-.44v-4.6a2.62,2.62,0,0,0-.59-1.8,1.93,1.93,0,0,0-1.52-.67,2.22,2.22,0,0,0-1.64.65,2.33,2.33,0,0,0-.64,1.69h-.88a4.26,4.26,0,0,1,.46-1.82,3.27,3.27,0,0,1,4.5-1.24,3,3,0,0,1,1.13,1.27,4.12,4.12,0,0,1,.41,1.92v4.6a.55.55,0,0,1-.17.44A.57.57,0,0,1,315.21,120.5Zm5.59,0a.59.59,0,0,1-.45-.17.56.56,0,0,1-.18-.44v-4.6a2.57,2.57,0,0,0-.59-1.8,1.92,1.92,0,0,0-1.52-.67,2.11,2.11,0,0,0-1.62.67,2.4,2.4,0,0,0-.62,1.76h-1.1a3.93,3.93,0,0,1,.46-1.88,3.2,3.2,0,0,1,1.23-1.27,3.53,3.53,0,0,1,1.78-.44,3.09,3.09,0,0,1,1.67.44,3,3,0,0,1,1.14,1.27,4.25,4.25,0,0,1,.4,1.92v4.6a.57.57,0,0,1-.6.61Z" transform="translate(-95.1 -107.85)"/><path class="cls-2" d="M328.09,120.58a4.52,4.52,0,0,1-2.29-.57,4,4,0,0,1-1.57-1.57,4.6,4.6,0,0,1-.57-2.31,4.8,4.8,0,0,1,.54-2.31,4.23,4.23,0,0,1,5.77-1.6,3.77,3.77,0,0,1,1.4,1.53,4.84,4.84,0,0,1,.5,2.22.55.55,0,0,1-.16.41.61.61,0,0,1-.42.16h-6.8v-1h6.93l-.69.5a3.75,3.75,0,0,0-.33-1.67,2.66,2.66,0,0,0-2.55-1.56,2.93,2.93,0,0,0-1.6.43,2.85,2.85,0,0,0-1.06,1.19,3.86,3.86,0,0,0-.38,1.73,3.37,3.37,0,0,0,.43,1.73,3.16,3.16,0,0,0,1.16,1.19,3.34,3.34,0,0,0,1.69.43,3.63,3.63,0,0,0,1.16-.2,2.87,2.87,0,0,0,.94-.5.67.67,0,0,1,.4-.16.6.6,0,0,1,.38.12.62.62,0,0,1,.22.42.46.46,0,0,1-.19.38,4.39,4.39,0,0,1-1.34.75A4.76,4.76,0,0,1,328.09,120.58Z" transform="translate(-95.1 -107.85)"/><path class="cls-2" d="M334.57,120.5a.57.57,0,0,1-.45-.17.55.55,0,0,1-.17-.44v-7.51a.58.58,0,0,1,.17-.46.61.61,0,0,1,.45-.17.6.6,0,0,1,.44.17.62.62,0,0,1,.17.46v7.51a.59.59,0,0,1-.17.44A.57.57,0,0,1,334.57,120.5Zm6.88,0a.64.64,0,0,1-.45-.17.62.62,0,0,1-.17-.44v-4.15a3.21,3.21,0,0,0-.38-1.64,2.48,2.48,0,0,0-1-1,3.31,3.31,0,0,0-1.47-.32,3.11,3.11,0,0,0-1.41.31,2.49,2.49,0,0,0-1,.83,2,2,0,0,0-.37,1.2h-.88a3.46,3.46,0,0,1,.54-1.8,3.8,3.8,0,0,1,1.36-1.25,4,4,0,0,1,1.89-.45,4.19,4.19,0,0,1,2,.47,3.43,3.43,0,0,1,1.42,1.38,4.41,4.41,0,0,1,.52,2.23v4.15a.59.59,0,0,1-.18.44A.6.6,0,0,1,341.45,120.5Z" transform="translate(-95.1 -107.85)"/><path class="cls-2" d="M344.22,113.14a.57.57,0,0,1-.4-.15.49.49,0,0,1-.16-.37.52.52,0,0,1,.16-.4.57.57,0,0,1,.4-.15h4.08a.57.57,0,0,1,.4.15.52.52,0,0,1,.16.4.49.49,0,0,1-.16.37.57.57,0,0,1-.4.15Zm4,7.36a2.86,2.86,0,0,1-2.56-1.49,3.34,3.34,0,0,1-.38-1.59v-7.83a.64.64,0,0,1,.17-.45.6.6,0,0,1,.44-.17.58.58,0,0,1,.62.62v7.83a1.89,1.89,0,0,0,.48,1.33,1.59,1.59,0,0,0,1.23.52h.44a.51.51,0,0,1,.41.18.6.6,0,0,1,.16.44.53.53,0,0,1-.19.44.67.67,0,0,1-.48.17Z" transform="translate(-95.1 -107.85)"/><path class="cls-2" d="M355.07,120.58a4.18,4.18,0,0,1-3.75-2.17,4.54,4.54,0,0,1-.57-2.28,4.44,4.44,0,0,1,.58-2.28,4.28,4.28,0,0,1,1.59-1.6,4.57,4.57,0,0,1,2.28-.58,4.5,4.5,0,0,1,2.26.58,4.26,4.26,0,0,1,1.58,1.6,4.56,4.56,0,0,1,.6,2.28l-.49.39a4,4,0,0,1-.54,2.07,4.06,4.06,0,0,1-1.45,1.46A4.16,4.16,0,0,1,355.07,120.58Zm.13-1.12a3.15,3.15,0,0,0,1.65-.43,3.06,3.06,0,0,0,1.15-1.19,3.62,3.62,0,0,0,0-3.42,3.14,3.14,0,0,0-2.8-1.63,3.18,3.18,0,0,0-1.65.44,3.26,3.26,0,0,0-1.17,1.19,3.62,3.62,0,0,0,0,3.42,3.17,3.17,0,0,0,2.82,1.62Zm3.82,1a.6.6,0,0,1-.45-.17.55.55,0,0,1-.17-.44v-2.73l.3-1.27.94.24v3.76a.55.55,0,0,1-.17.44A.6.6,0,0,1,359,120.5Z" transform="translate(-95.1 -107.85)"/><path class="cls-2" d="M361.48,113.14a.57.57,0,0,1-.4-.15.52.52,0,0,1-.16-.37.56.56,0,0,1,.16-.4.57.57,0,0,1,.4-.15h4.08a.55.55,0,0,1,.4.15.52.52,0,0,1,.16.4.49.49,0,0,1-.16.37.55.55,0,0,1-.4.15Zm4,7.36a2.82,2.82,0,0,1-1.51-.4,2.75,2.75,0,0,1-1-1.09,3.23,3.23,0,0,1-.39-1.59v-7.83a.64.64,0,0,1,.17-.45.6.6,0,0,1,.44-.17.64.64,0,0,1,.45.17.61.61,0,0,1,.18.45v7.83a1.89,1.89,0,0,0,.48,1.33,1.59,1.59,0,0,0,1.23.52h.43a.54.54,0,0,1,.42.18.64.64,0,0,1,.16.44.54.54,0,0,1-.2.44.64.64,0,0,1-.48.17Z" transform="translate(-95.1 -107.85)"/><path class="cls-2" d="M369.34,110.09a.83.83,0,0,1-.61-.26.84.84,0,0,1-.25-.62.8.8,0,0,1,.26-.64.93.93,0,0,1,.62-.23.92.92,0,0,1,.6.23.84.84,0,0,1,.26.64.89.89,0,0,1-.88.88Zm0,10.41a.58.58,0,0,1-.46-.17.61.61,0,0,1-.17-.45v-7.5a.62.62,0,1,1,1.23,0v7.5a.61.61,0,0,1-.16.45A.58.58,0,0,1,369.36,120.5Z" transform="translate(-95.1 -107.85)"/><path class="cls-2" d="M377.08,120.58a4.54,4.54,0,0,1-2.28-.57,4.26,4.26,0,0,1-1.59-1.59,4.91,4.91,0,0,1,0-4.59,4.16,4.16,0,0,1,1.59-1.58,4.44,4.44,0,0,1,2.28-.58,4.39,4.39,0,0,1,2.28.58,4.13,4.13,0,0,1,1.58,1.58,4.71,4.71,0,0,1,.59,2.3,4.46,4.46,0,0,1-.58,2.29,4.33,4.33,0,0,1-1.59,1.59A4.49,4.49,0,0,1,377.08,120.58Zm0-1.12a3.22,3.22,0,0,0,1.67-.43,3.1,3.1,0,0,0,1.15-1.18,3.71,3.71,0,0,0,0-3.43,3.09,3.09,0,0,0-1.15-1.2,3.44,3.44,0,0,0-3.33,0,3.11,3.11,0,0,0-1.16,1.2,3.71,3.71,0,0,0,0,3.43,3.13,3.13,0,0,0,1.16,1.18A3.21,3.21,0,0,0,377.08,119.46Z" transform="translate(-95.1 -107.85)"/><path class="cls-2" d="M384.56,120.5a.58.58,0,0,1-.63-.61v-7.51a.62.62,0,1,1,1.23,0v7.51a.57.57,0,0,1-.6.61Zm6.88,0a.61.61,0,0,1-.45-.17.59.59,0,0,1-.18-.44v-4.15a3.21,3.21,0,0,0-.37-1.64,2.51,2.51,0,0,0-1-1,3.3,3.3,0,0,0-1.46-.32,3.15,3.15,0,0,0-1.42.31,2.55,2.55,0,0,0-1,.83,2.08,2.08,0,0,0-.37,1.2h-.88a3.56,3.56,0,0,1,.55-1.8,3.64,3.64,0,0,1,1.36-1.25,3.94,3.94,0,0,1,1.89-.45,4.25,4.25,0,0,1,2,.47,3.41,3.41,0,0,1,1.41,1.38,4.41,4.41,0,0,1,.52,2.23v4.15a.62.62,0,0,1-.17.44A.61.61,0,0,1,391.44,120.5Z" transform="translate(-95.1 -107.85)"/></g><g class="cls-1"><path class="cls-2" d="M101.32,120.66a6,6,0,0,1-2.42-.49,6,6,0,0,1-2-1.39,6.48,6.48,0,0,1-1.33-2,6.71,6.71,0,0,1,0-5,6,6,0,0,1,1.33-2,6.39,6.39,0,0,1,2-1.39,6,6,0,0,1,2.44-.5,6.34,6.34,0,0,1,2.1.33,6.24,6.24,0,0,1,1.82,1.07.45.45,0,0,1,.17.27.57.57,0,0,1,0,.29.52.52,0,0,1-.19.2.33.33,0,0,1-.16.19.6.6,0,0,1-.3,0,.61.61,0,0,1-.33-.15,4.31,4.31,0,0,0-1.36-.81,5.21,5.21,0,0,0-1.71-.26,4.54,4.54,0,0,0-1.94.42,5,5,0,0,0-1.6,1.13,5.33,5.33,0,0,0-1.08,1.67,5.17,5.17,0,0,0-.39,2,5.26,5.26,0,0,0,1.47,3.69,5,5,0,0,0,1.6,1.13,4.69,4.69,0,0,0,1.94.41,4.79,4.79,0,0,0,1.66-.29,5.49,5.49,0,0,0,1.49-.83.5.5,0,0,1,.41-.13.72.72,0,0,1,.38.19.6.6,0,0,1,.15.42.85.85,0,0,1,0,.23.62.62,0,0,1-.14.22,4.81,4.81,0,0,1-1.82,1.06A7.07,7.07,0,0,1,101.32,120.66Zm4.09-1.82-1.21-.26v-3.21h-2.5a.69.69,0,0,1-.45-.16.54.54,0,0,1-.17-.4.51.51,0,0,1,.17-.39.64.64,0,0,1,.45-.16h3.09a.64.64,0,0,1,.45.17.57.57,0,0,1,.17.44Z" transform="translate(-95.1 -107.85)"/><path class="cls-2" d="M111.21,120.58a4.56,4.56,0,0,1-2.3-.57,4,4,0,0,1-1.57-1.57,4.6,4.6,0,0,1-.57-2.31,4.8,4.8,0,0,1,.54-2.31,4,4,0,0,1,3.66-2.15,4,4,0,0,1,2.12.55,3.77,3.77,0,0,1,1.4,1.53A4.83,4.83,0,0,1,115,116a.51.51,0,0,1-.16.41.57.57,0,0,1-.41.16h-6.8v-1h6.93l-.69.5a3.62,3.62,0,0,0-.34-1.67,2.74,2.74,0,0,0-1-1.15,2.77,2.77,0,0,0-1.54-.41,2.93,2.93,0,0,0-1.6.43,2.87,2.87,0,0,0-1.07,1.19,3.86,3.86,0,0,0-.37,1.73,3.46,3.46,0,0,0,.42,1.73,3.16,3.16,0,0,0,1.16,1.19,3.38,3.38,0,0,0,1.7.43,3.68,3.68,0,0,0,1.16-.2,2.71,2.71,0,0,0,.93-.5.67.67,0,0,1,.4-.16.65.65,0,0,1,.39.12.57.57,0,0,1,.21.42.43.43,0,0,1-.18.38,4.33,4.33,0,0,1-1.35.75A4.7,4.7,0,0,1,111.21,120.58Z" transform="translate(-95.1 -107.85)"/><path class="cls-2" d="M116.5,113.14a.57.57,0,0,1-.4-.15.52.52,0,0,1-.16-.37.56.56,0,0,1,.16-.4.57.57,0,0,1,.4-.15h4.08a.55.55,0,0,1,.4.15.52.52,0,0,1,.16.4.49.49,0,0,1-.16.37.55.55,0,0,1-.4.15Zm4,7.36a2.88,2.88,0,0,1-1.52-.4,2.8,2.8,0,0,1-1-1.09,3.23,3.23,0,0,1-.39-1.59v-7.83a.64.64,0,0,1,.17-.45.6.6,0,0,1,.44-.17.64.64,0,0,1,.45.17.6.6,0,0,1,.17.45v7.83a1.89,1.89,0,0,0,.48,1.33,1.59,1.59,0,0,0,1.24.52h.43a.51.51,0,0,1,.41.18.6.6,0,0,1,.16.44.53.53,0,0,1-.19.44.67.67,0,0,1-.48.17Z" transform="translate(-95.1 -107.85)"/><path class="cls-2" d="M131.93,120.5a.6.6,0,0,1-.44-.18.58.58,0,0,1-.19-.44v-4L127,109a.59.59,0,0,1-.12-.46.64.64,0,0,1,.2-.37.56.56,0,0,1,.4-.14.49.49,0,0,1,.31.08.66.66,0,0,1,.22.22l4.32,7h-.67l4.3-6.93a.74.74,0,0,1,.25-.25.58.58,0,0,1,.33-.08.5.5,0,0,1,.37.15.65.65,0,0,1,.18.38.69.69,0,0,1-.12.44l-4.37,6.9v4a.6.6,0,0,1-.18.44A.62.62,0,0,1,131.93,120.5Z" transform="translate(-95.1 -107.85)"/><path class="cls-2" d="M140.94,120.58a4.55,4.55,0,0,1-2.29-.57,4.33,4.33,0,0,1-1.59-1.59,4.91,4.91,0,0,1,0-4.59,4.23,4.23,0,0,1,1.59-1.58,4.79,4.79,0,0,1,4.57,0,4.18,4.18,0,0,1,1.57,1.58,4.6,4.6,0,0,1,.59,2.3,4.46,4.46,0,0,1-.58,2.29,4.38,4.38,0,0,1-1.58,1.59A4.54,4.54,0,0,1,140.94,120.58Zm0-1.12a3.21,3.21,0,0,0,1.66-.43,3.1,3.1,0,0,0,1.15-1.18,3.71,3.71,0,0,0,0-3.43,3.09,3.09,0,0,0-1.15-1.2,3.44,3.44,0,0,0-3.33,0,3.11,3.11,0,0,0-1.16,1.2,3.71,3.71,0,0,0,0,3.43,3.13,3.13,0,0,0,1.16,1.18A3.22,3.22,0,0,0,140.94,119.46Z" transform="translate(-95.1 -107.85)"/><path class="cls-2" d="M151.59,120.6a4.34,4.34,0,0,1-2-.47,3.52,3.52,0,0,1-1.42-1.39,4.5,4.5,0,0,1-.52-2.22v-4.16a.57.57,0,0,1,.18-.43.58.58,0,0,1,.43-.18.61.61,0,0,1,.45.18.56.56,0,0,1,.17.43v4.16a3.2,3.2,0,0,0,.38,1.63,2.33,2.33,0,0,0,1,1,3.5,3.5,0,0,0,2.88,0,2.58,2.58,0,0,0,1-.84,2.07,2.07,0,0,0,.36-1.2h.88a3.57,3.57,0,0,1-1.9,3A3.89,3.89,0,0,1,151.59,120.6Zm3.52-.1a.57.57,0,0,1-.44-.17.61.61,0,0,1-.17-.45v-7.52a.58.58,0,0,1,.61-.61.64.64,0,0,1,.45.17.57.57,0,0,1,.17.44v7.52a.57.57,0,0,1-.17.45A.6.6,0,0,1,155.11,120.5Z" transform="translate(-95.1 -107.85)"/><path class="cls-2" d="M159.22,120.5a.61.61,0,0,1-.45-.16.61.61,0,0,1-.16-.45v-7.53a.65.65,0,0,1,.16-.45.61.61,0,0,1,1.06.45v7.53a.58.58,0,0,1-.16.45A.61.61,0,0,1,159.22,120.5Zm-.09-5.39a3.7,3.7,0,0,1,.52-1.78,3.45,3.45,0,0,1,1.23-1.23,3.26,3.26,0,0,1,1.69-.44,2.46,2.46,0,0,1,1.13.2.51.51,0,0,1,.31.61.5.5,0,0,1-.22.32.62.62,0,0,1-.37.06l-.49,0a3.56,3.56,0,0,0-1.59.19,2.37,2.37,0,0,0-1.1.8,2.14,2.14,0,0,0-.41,1.3Z" transform="translate(-95.1 -107.85)"/><path class="cls-2" d="M178,124.23a8.77,8.77,0,0,1-3.27-.59,7.64,7.64,0,0,1-2.57-1.68,7.44,7.44,0,0,1-1.68-2.57,9.36,9.36,0,0,1,0-6.54,7.49,7.49,0,0,1,4.25-4.25,9.33,9.33,0,0,1,6.53,0,7.39,7.39,0,0,1,2.58,1.68,7.64,7.64,0,0,1,1.68,2.57,8.89,8.89,0,0,1,.59,3.27,7.68,7.68,0,0,1-.4,2.6,4.32,4.32,0,0,1-1.1,1.77,2.33,2.33,0,0,1-1.62.64,1.92,1.92,0,0,1-1.34-.49,1.69,1.69,0,0,1-.51-1.27v-.61a3.21,3.21,0,0,1-.83.9,4.44,4.44,0,0,1-1.13.62,3.65,3.65,0,0,1-1.24.22,4.4,4.4,0,0,1-2.25-.56,3.88,3.88,0,0,1-1.51-1.55,4.92,4.92,0,0,1,0-4.54,4.16,4.16,0,0,1,1.54-1.55,4.86,4.86,0,0,1,4.53,0,4.19,4.19,0,0,1,1.55,1.55,4.57,4.57,0,0,1,.56,2.27v2.75a1.29,1.29,0,0,0,.18.76.6.6,0,0,0,.52.25,1.19,1.19,0,0,0,.92-.48,3.37,3.37,0,0,0,.64-1.33,7.2,7.2,0,0,0,.23-1.95,7.49,7.49,0,0,0-.5-2.76,6.58,6.58,0,0,0-1.42-2.18,6.43,6.43,0,0,0-2.18-1.42,7.78,7.78,0,0,0-5.54,0,6.39,6.39,0,0,0-2.17,1.42,6.28,6.28,0,0,0-1.42,2.18,8,8,0,0,0,0,5.53,6.19,6.19,0,0,0,1.42,2.18,6.39,6.39,0,0,0,2.17,1.42A7.55,7.55,0,0,0,178,123a7.21,7.21,0,0,0,1.49-.16,5.28,5.28,0,0,0,1.32-.41.77.77,0,0,1,.68-.06.55.55,0,0,1,.27.55c0,.23-.16.44-.48.64a4.11,4.11,0,0,1-1.33.5A8.77,8.77,0,0,1,178,124.23Zm0-5a3.25,3.25,0,0,0,1.61-.39,2.86,2.86,0,0,0,1.11-1.1,3.5,3.5,0,0,0,0-3.25,2.93,2.93,0,0,0-1.11-1.1A3.15,3.15,0,0,0,178,113a3.2,3.2,0,0,0-1.63.4,2.84,2.84,0,0,0-1.1,1.1,3.58,3.58,0,0,0,0,3.25,2.77,2.77,0,0,0,1.1,1.1A3.3,3.3,0,0,0,178,119.24Z" transform="translate(-95.1 -107.85)"/><path class="cls-2" d="M192.14,120.66a6.06,6.06,0,0,1-1.9-.29,4.61,4.61,0,0,1-1.51-.84,3.84,3.84,0,0,1-1-1.27.49.49,0,0,1,0-.47.64.64,0,0,1,.41-.29.56.56,0,0,1,.44,0,.83.83,0,0,1,.33.34,2.49,2.49,0,0,0,.7.83,3.24,3.24,0,0,0,1.11.57,4.75,4.75,0,0,0,1.41.2,3.75,3.75,0,0,0,1.5-.28,2.34,2.34,0,0,0,1-.82,2.2,2.2,0,0,0,.38-1.3,2.27,2.27,0,0,0-.72-1.68,3.84,3.84,0,0,0-2.26-.9,5.22,5.22,0,0,1-2.93-1.16,3,3,0,0,1-1-2.29,2.81,2.81,0,0,1,.52-1.7,3.28,3.28,0,0,1,1.43-1.11,5.31,5.31,0,0,1,2.1-.39,4.28,4.28,0,0,1,1.59.28,4.34,4.34,0,0,1,1.26.73,4.25,4.25,0,0,1,.87,1,.67.67,0,0,1,.11.5.58.58,0,0,1-.28.37.69.69,0,0,1-.49,0,.67.67,0,0,1-.38-.3,3.54,3.54,0,0,0-.6-.7,2.69,2.69,0,0,0-.87-.52,3.67,3.67,0,0,0-1.23-.21,3.46,3.46,0,0,0-2,.54,1.75,1.75,0,0,0-.77,1.56,1.79,1.79,0,0,0,.29,1,2.31,2.31,0,0,0,.95.78,6.09,6.09,0,0,0,1.78.49,5.24,5.24,0,0,1,3,1.22,3.24,3.24,0,0,1,1,2.44,3.59,3.59,0,0,1-.31,1.54,3.15,3.15,0,0,1-.88,1.13,4.1,4.1,0,0,1-1.33.69A5.38,5.38,0,0,1,192.14,120.66Z" transform="translate(-95.1 -107.85)"/><path class="cls-2" d="M199.59,110.09a.87.87,0,0,1-.86-.88.8.8,0,0,1,.26-.64.93.93,0,0,1,.62-.23.92.92,0,0,1,.6.23.84.84,0,0,1,.26.64.82.82,0,0,1-.26.62A.84.84,0,0,1,199.59,110.09Zm0,10.41a.58.58,0,0,1-.46-.17.61.61,0,0,1-.17-.45v-7.5a.59.59,0,0,1,.63-.63.6.6,0,0,1,.44.17.61.61,0,0,1,.16.46v7.5a.61.61,0,0,1-.16.45A.57.57,0,0,1,199.61,120.5Z" transform="translate(-95.1 -107.85)"/><path class="cls-2" d="M207.21,120.58A4.34,4.34,0,0,1,205,120a3.92,3.92,0,0,1-1.53-1.57,5.07,5.07,0,0,1,0-4.63,4.14,4.14,0,0,1,1.59-1.57,4.89,4.89,0,0,1,4.58,0,4.08,4.08,0,0,1,1.57,1.57,4.78,4.78,0,0,1,.58,2.32l-.72.39a4.34,4.34,0,0,1-.49,2.1,3.66,3.66,0,0,1-1.37,1.44A3.79,3.79,0,0,1,207.21,120.58Zm.16,3.38a5,5,0,0,1-2.23-.47,4.45,4.45,0,0,1-1.58-1.29.5.5,0,0,1-.15-.42.46.46,0,0,1,.23-.36.58.58,0,0,1,.46-.1.59.59,0,0,1,.4.24,3.57,3.57,0,0,0,1.19.93,3.92,3.92,0,0,0,1.69.35,3.07,3.07,0,0,0,1.62-.43,3.12,3.12,0,0,0,1.14-1.22,3.85,3.85,0,0,0,.43-1.84v-2.43L211,116l.75.14v3.27a4.76,4.76,0,0,1-.57,2.33,4.39,4.39,0,0,1-1.57,1.63A4.3,4.3,0,0,1,207.37,124Zm0-4.5A3.33,3.33,0,0,0,209,119a3.08,3.08,0,0,0,1.14-1.18,3.46,3.46,0,0,0,.42-1.73,3.52,3.52,0,0,0-.42-1.73,3.11,3.11,0,0,0-1.14-1.19,3.57,3.57,0,0,0-3.36,0,3.06,3.06,0,0,0-1.15,1.19,3.51,3.51,0,0,0-.41,1.73,3.46,3.46,0,0,0,.41,1.73,3,3,0,0,0,1.15,1.18A3.33,3.33,0,0,0,207.33,119.46Z" transform="translate(-95.1 -107.85)"/><path class="cls-2" d="M214.81,120.5a.58.58,0,0,1-.63-.61v-7.51a.62.62,0,1,1,1.23,0v7.51a.57.57,0,0,1-.6.61Zm6.88,0a.61.61,0,0,1-.45-.17.59.59,0,0,1-.18-.44v-4.15a3.21,3.21,0,0,0-.37-1.64,2.51,2.51,0,0,0-1-1,3.3,3.3,0,0,0-1.46-.32,3.15,3.15,0,0,0-1.42.31,2.55,2.55,0,0,0-1,.83,2.08,2.08,0,0,0-.37,1.2h-.88a3.56,3.56,0,0,1,.55-1.8,3.64,3.64,0,0,1,1.36-1.25,3.94,3.94,0,0,1,1.89-.45,4.25,4.25,0,0,1,2,.47,3.41,3.41,0,0,1,1.41,1.38,4.41,4.41,0,0,1,.52,2.23v4.15a.62.62,0,0,1-.17.44A.61.61,0,0,1,221.69,120.5Z" transform="translate(-95.1 -107.85)"/></g></g><g id="Contents_2" data-name="Contents #2"><g id="Laptop"><g id="Fill"><path id="path-1" class="cls-3" d="M995.5,389.33V342.46a25.15,25.15,0,0,0-25.17-25.13H290.67a25.15,25.15,0,0,0-25.17,25.13v41.87" transform="translate(-95.1 -107.85)"/><path id="path-1-2" data-name="path-1" class="cls-3" d="M265.5,384.33V791.58a16.76,16.76,0,0,0,16.78,16.75H978.72a16.76,16.76,0,0,0,16.78-16.75V389.33" transform="translate(-95.1 -107.85)"/></g><polygon id="Fill-2" data-name="Fill" class="cls-3" points="196.41 660.49 879.4 660.49 879.4 238.49 196.41 238.49 196.41 660.49"/><line id="_YOUR_IMAGE_HERE_" data-name="[YOUR IMAGE HERE]" class="cls-2" x1="198.4" y1="240.49" x2="198.4" y2="275.49"/><polyline id="_YOUR_IMAGE_HERE_2" data-name="[YOUR IMAGE HERE]" class="cls-2" points="198.41 275.52 198.41 658.49 877.4 658.49 877.4 240.49 198.41 240.49"/><path id="Fill-3" data-name="Fill" class="cls-4" d="M219.49,828.33c-11.16,0-25.12-6.68-31.08-9.53l-1.91-.9V805.33h887V817.9l-1.9.91c-5.92,2.85-19.78,9.52-30.85,9.52Z" transform="translate(-95.1 -107.85)"/><g id="Fill-4" data-name="Fill"><path id="path-3" class="cls-3" d="M1076.5,805.33h-890v15.13c1,0,20,10.87,34.55,10.87h821.14c14.43,0,33.28-10.89,34.27-10.89,0,0,0-.09,0-.09Z" transform="translate(-95.1 -107.85)"/></g><polygon id="Line" class="cls-3" points="92.58 709.49 91.58 711.49 977.58 711.49 978.58 709.49 92.58 709.49"/><path id="Fill-5" data-name="Fill" class="cls-3" d="M676.5,814.33H575.24a9.82,9.82,0,0,1-9.74-9.9v-.1h121v.1a9.82,9.82,0,0,1-9.75,9.9" transform="translate(-95.1 -107.85)"/><path id="Fill-6" data-name="Fill" class="cls-2" d="M629.67,334.17a3.5,3.5,0,1,1-3.5-3.5,3.5,3.5,0,0,1,3.5,3.5" transform="translate(-95.1 -107.85)"/></g><g id="Mobile_Phone" data-name="Mobile Phone"><path id="Stroke" class="cls-3" d="M293.5,833.33h-102a14.89,14.89,0,0,1-15-15v-242a14.92,14.92,0,0,1,15-15h102a14.79,14.79,0,0,1,15,15v242A14.76,14.76,0,0,1,293.5,833.33Z" transform="translate(-95.1 -107.85)"/><polygon id="_YOUR_IMAGE_HERE_3" data-name="[YOUR IMAGE HERE]" class="cls-2" points="208.41 484.49 208.41 484.49 89.41 484.49 89.41 484.49 89.41 484.49 89.41 695.49 89.41 695.49 89.41 695.49 208.41 695.49 208.41 695.49 208.41 695.49 208.41 484.49"/><path id="Stroke-2" data-name="Stroke" class="cls-2" d="M252.67,579.33a.94.94,0,0,1-1,1h-18a1,1,0,1,1,0-2h18a.94.94,0,0,1,1,1Z" transform="translate(-95.1 -107.85)"/><path id="Stroke-3" data-name="Stroke" class="cls-2" d="M244.67,570.66a2,2,0,1,1-2-2,2,2,0,0,1,2,2Z" transform="translate(-95.1 -107.85)"/><path id="Stroke-4" data-name="Stroke" class="cls-2" d="M222.67,578.67a2,2,0,1,1-2-2,2,2,0,0,1,2,2Z" transform="translate(-95.1 -107.85)"/><path id="Stroke-5" data-name="Stroke" class="cls-3" d="M311.5,621.33h-2v19h2c-.13,0,0-.17,0,0v-19c0,.18-.13,0,0,0Z" transform="translate(-95.1 -107.85)"/><path id="Stroke-6" data-name="Stroke" class="cls-3" d="M176.5,595.67h0c-.67,0-1,.17-1,0v9c0-.18.33,0,1,0h0v-9Z" transform="translate(-95.1 -107.85)"/><path id="Stroke-7" data-name="Stroke" class="cls-3" d="M176.5,620.33h-1c.23,0,0,.18,0,0v19c0-.17.23,0,0,0h1v-19Z" transform="translate(-95.1 -107.85)"/><path id="Stroke-8" data-name="Stroke" class="cls-3" d="M176.5,645.33h-1c.23,0,0,.18,0,0v19c0-.17.23,0,0,0h1v-19Z" transform="translate(-95.1 -107.85)"/></g><g id="Tablet"><path id="Shape" class="cls-3" d="M1089.5,452.33h-239a14.89,14.89,0,0,0-15,15v351c0,8.35,7.19,15,16,15h237a15.62,15.62,0,0,0,16-16v-350a14.93,14.93,0,0,0-15-15Z" transform="translate(-95.1 -107.85)"/><circle id="Camera" class="cls-2" cx="875.08" cy="363.32" r="2.5"/><path id="Shape-2" data-name="Shape" class="cls-3" d="M1085.5,487.33a1.31,1.31,0,0,1,1,1v309a1,1,0,0,1-1,1h-231a1,1,0,0,1-1-1v-309a1,1,0,0,1,1-1Z" transform="translate(-95.1 -107.85)"/><path id="_YOUR_IMAGE_HERE_4" data-name="[YOUR IMAGE HERE]" class="cls-2" d="M1084.51,488.33a1.3,1.3,0,0,1,1,1v307a1,1,0,0,1-1,1h-229a1,1,0,0,1-1-1v-307a1,1,0,0,1,1-1Z" transform="translate(-95.1 -107.85)"/></g></g></svg>